<?xml version="1.0" encoding="utf-8"?>
<!-- Generator: Adobe Illustrator 26.0.3, SVG Export Plug-In . SVG Version: 6.00 Build 0)  -->
<svg version="1.0" id="katman_1" xmlns="http://www.w3.org/2000/svg" xmlns:xlink="http://www.w3.org/1999/xlink" x="0px" y="0px"
	 viewBox="0 0 600 450" style="enable-background:new 0 0 600 450;" xml:space="preserve">
<style type="text/css">
	.st0{fill:#087CC1;}
</style>
<path id="logo" class="st0" d="M493.7,174.5c6.7,0,12.6-5.5,12.6-12.6c0-6.7-5.5-12.6-12.6-12.6c-6.7,0-12.6,5.5-12.6,12.6
	C481.4,168.9,487,174.5,493.7,174.5L493.7,174.5z M483.3,162c0-5.8,4.9-10.7,10.7-10.7s10.7,4.9,10.7,10.7s-4.9,10.7-10.7,10.7
	C487.9,172.7,483.3,167.8,483.3,162L483.3,162z M489.1,168.4h2.4v-5.5h2.8l2.1,5.2h2.8l-2.4-5.8c0.9-0.3,2.1-0.9,2.1-3.4
	c0-3.7-2.8-4.3-5.2-4.3h-4.3v13.8L489.1,168.4L489.1,168.4z M491.6,157.3h2.8c1.5,0,2.1,0.6,2.1,1.9c0,1.2-0.9,1.9-2.1,1.9h-2.8
	V157.3L491.6,157.3z M93.9,167.4L93.9,167.4v-14.7h14.8v14.8l0,0v93v0.3v14.4H93.9v-14.8v-0.3V167.4L93.9,167.4z M244,230.7
	c0.3,22.4,14.1,40.2,31,39.9c16.9-0.3,30.1-18.7,29.8-40.8c-0.3-22.4-14.1-40.2-31-39.9C256.9,190.1,243.6,208.2,244,230.7
	L244,230.7z M366.1,203.7c0.3,0.9-0.6-1.2-0.6-1.2L366.1,203.7L366.1,203.7z M376.2,296c0.6-1.2,1.5-2.8,2.8-5.2L376.2,296
	L376.2,296z M377.1,196c0.3,0.6,0.3,0.9,0.6,1.5l4.9,12.3L377.1,196L377.1,196z M315.1,257.3c9.2,8.3,17.2,12.6,27.9,12.6
	s20.2-5.2,20.2-15.3c0-8.6-7.3-13.5-20.9-19c-11.4-4.9-19.6-8.3-24.2-15.3c0.6,3,0.9,6.2,0.9,9.5c0,27.3-20,49.4-44.5,49.4
	s-44.5-22.1-44.5-49.4c0-16.6,7.3-31,18.4-40.2h-30.1v70.9v0.3v14.8h-13.2v-14.1c0-0.3,0-0.6,0-0.6v-71.2h-11.6v-8.9h12
	c1.5-18.1,12.6-28.2,28.2-28.2c10.1,0,15.7,0.9,18.7,2.4v12.3c0,0.9,0,1.5,0,1.5h-0.6c-4.9-4.6-9.5-7.7-20.6-7.7
	c-8.9,0-14.8,7.1-12.6,19.6h50c2.1-0.3,4.3-0.6,6.4-0.6c17.8,0,33.1,11.6,40.2,28.5c0-0.9,0-1.9,0-3c0-17.5,17.2-25.1,34.6-25.1
	c0.6,0,1.2,0,1.9,0c6.2,0,15,1.9,20.6,3.4l4.9,12l5.5,13.8l14.8,36.8l1.9,5.8l1.9-5.8l19-47c3.4-12.9,17.5-18.4,32.5-18.4
	c7.7,0,13.2,0.9,20,3.4v14.2c-8.3-6.2-14.1-9.5-23.6-9.5c-8.3,0-18.1,3.7-18.1,15.9c-0.3,9.2,5.2,10.7,21.5,18.7
	c13.2,5.8,25.5,12,25.5,26.7c0,24.5-24.2,28.8-35.9,28.8c-10.5,0-20.2-2.4-25.5-7.1v-16.3l0.9,0.6c9.5,8.9,18.1,13.5,28.8,13.5
	c10.7,0,20.2-5.2,20.2-15.3c0-8.6-7.3-13.5-20.9-19c-12.9-5.5-21.2-9.2-24.5-18.4c-5.2,12.6-29.4,71.8-35.3,84.4h-12.9l3-5.8
	l2.8-5.2v-0.3c3.4-6.4,8-16.6,12.3-26.4L366.2,203c-0.3-0.3-0.6-1.2-1.5-3c-1.9-4.3-3.7-8.6-9.2-10.5c-2.8-0.9-6.2-1.5-9.5-1.5
	c-8.3,0-18.7,3.7-18.7,15.9c-0.3,9.2,5.8,10.7,22.1,18.7c13.2,5.8,25.5,12,25.5,26.7c0,24.5-24.2,28.8-35.9,28.8
	c-9.2,0-18.1-2.1-23.6-5.5L315.1,257.3L315.1,257.3z M136.3,181.6l0.3,10.7v0.6l0,0c0.3-0.3,0.3-0.9,0.6-1.2
	c5.5-5.8,12.3-11.6,28.5-11.6c15.7,0,25.5,13.2,26,21.5v58.6v0.3v14.8h-13.2v-17.5v-50c0-10.5-9.2-17.8-20.2-17.8
	c-9.2,0-21.2,8.3-21.5,16.9v53.7v0.3v14.4h-13.5v-14.8v-66.6v-12.3h2.4h7.3L136.3,181.6L136.3,181.6z"/>
</svg>
