
<svg version="1.1" height="30px" width="40px" xmlns="http://www.w3.org/2000/svg" x="0px" y="0px" viewBox="0 0 256 256" enable-background="new 0 0 256 256" xml:space="preserve">

<g><g><path fill="#000000" d="M128,10C62.8,10,10,62.8,10,128c0,65.2,52.8,118,118,118c65.2,0,118-52.8,118-118C246,62.8,193.2,10,128,10z M164.4,235.8c-5.9,1.1-7.9-2.4-7.9-5.5c0-3.8,0.1-16.1,0.1-31.4c0-10.7-3.7-17.7-7.8-21.2c25.6-2.8,52.5-12.5,52.5-56.4c0-12.5-4.5-22.7-11.8-30.7c1.2-2.9,5.1-14.5-1.2-30.2c0,0-9.6-3.1-31.6,11.7c-9.2-2.6-19-3.8-28.8-3.9c-9.8,0-19.6,1.3-28.8,3.9c-22-14.8-31.6-11.7-31.6-11.7c-6.3,15.7-2.3,27.4-1.1,30.2c-7.4,8-11.8,18.2-11.8,30.7c0,43.8,26.9,53.6,52.4,56.5c-3.3,2.9-6.3,7.9-7.3,15.3c-6.6,2.9-23.2,8-33.5-9.5c0,0-6.1-11-17.6-11.8c0,0-11.2-0.1-0.8,7c0,0,7.5,3.5,12.8,16.7c0,0,6.7,22.3,38.7,15.3c0,9.6,0.1,16.7,0.1,19.5c0,3-2.1,6.6-7.9,5.5C45.9,220.7,13,177.8,13,127.3C13,64.1,64.4,13,128,13c63.6,0,115.1,51.2,115.1,114.3C243,177.8,210.1,220.6,164.4,235.8z"/></g></g>
</svg>