<svg xmlns="http://www.w3.org/2000/svg" height="30px" width="40px" viewBox="0 0 143 140"><path d="M71 0c1.6 0 3.2.2 4.6 1l49.8 23.7a9.5 9.5 0 0 1 5.1 6.4l12.3 53.5c.7 2.8 0 5.7-1.8 8l-34.4 42.8A9.5 9.5 0 0 1 99 139H44a9.5 9.5 0 0 1-7.4-3.6L2.1 92.6a9.4 9.4 0 0 1-1.9-8L12.5 31a9.5 9.5 0 0 1 5.2-6.4L67.4 1C68.5.4 69.8.1 71 0zm.5 18.2c-1.6 0-3 1.5-3 3.3v.9c0 1 .3 1.8.5 2.8.2 2 .4 3.8.3 5.4-.1.6-.6 1.2-1 1.5v1.3a38.7 38.7 0 0 0-24.9 12 50 50 0 0 1-1-.8c-.6 0-1.1.2-1.8-.2-1.4-.9-2.6-2.1-4-3.6-.7-.7-1.2-1.4-2-2l-.7-.6c-.6-.5-1.3-.8-2-.8a3 3 0 0 0-2.4 1c-1 1.3-.7 3.3.7 4.4l.7.6a27.8 27.8 0 0 1 6.9 4.6c.4.4.5 1.3.6 1.7l1 .8a38.6 38.6 0 0 0-6.1 26.9l-1.3.4c-.3.4-.8 1-1.3 1.3-1.5.4-3.2.6-5.3.8-1 .1-1.8 0-2.9.3-.2 0-.5 0-.8.2-1.8.4-2.9 2-2.5 3.6.3 1.6 2 2.6 3.8 2.2h.1l.8-.2 2.6-1c2-.8 3.6-1.3 5.2-1.6.7 0 1.4.4 1.7.6l1.3-.2a39 39 0 0 0 17.2 21.5l-.5 1.3c.2.5.4 1.2.2 1.7-.5 1.5-1.5 3-2.7 4.8l-1.6 2.4-.3.8c-.8 1.6-.2 3.5 1.2 4.2 1.5.7 3.3 0 4.1-1.7l.4-.7.9-2.8c.8-2 1.2-4 2.3-5.3.3-.4.8-.5 1.3-.6l.6-1.3a38.4 38.4 0 0 0 27.5.1l.6 1.2c.6.1 1.1.2 1.6.9.8 1.4 1.3 3 2 5 .3 1 .4 1.8.9 2.7l.3.8c.8 1.6 2.7 2.4 4.2 1.7 1.4-.7 2-2.6 1.2-4.3l-.4-.8c-.5-.9-1-1.5-1.6-2.3-1-1.8-2-3.3-2.6-4.8-.2-.7 0-1.2.2-1.7l-.5-1.2a38.8 38.8 0 0 0 17.2-21.6l1.3.2c.4-.3.8-.7 1.6-.6 1.6.2 3.3.8 5.2 1.5l2.7 1 .8.2c1.8.4 3.5-.6 4-2.2.3-1.6-.9-3.2-2.6-3.6l-.9-.2c-1-.2-1.9-.2-2.8-.2-2.1-.3-3.8-.4-5.4-1-.6-.2-1-.9-1.3-1.2l-1.2-.4a38.5 38.5 0 0 0-6.2-26.8l1.1-1c0-.5 0-1 .6-1.6 1.1-1.1 2.6-2 4.4-3.1l2.5-1.5.6-.5c1.4-1.2 1.8-3.1.7-4.4-1-1.3-3-1.4-4.4-.3l-.7.6c-.8.6-1.3 1.3-2 2-1.4 1.5-2.6 2.8-4 3.7-.5.3-1.4.2-1.7.2l-1.2.8a39 39 0 0 0-24.7-12v-1.3c-.4-.4-1-.7-1-1.5-.2-1.6 0-3.3.3-5.4.1-1 .4-1.8.4-2.8v-.9c0-1.8-1.3-3.3-3-3.3zm0 68c.3 0 .8 0 1.2.2.5.3.9.7 1.1 1.2h.1l7.6 13.7a31.4 31.4 0 0 1-19.9 0l7.6-13.7c.5-.9 1.3-1.4 2.2-1.4zM85 79.8l15.5 2.6a31 31 0 0 1-12.4 15.7l-6-14.6a2.6 2.6 0 0 1 2.9-3.7zm-26.6 0a2.6 2.6 0 0 1 2.3 3.7L55 98c-5.6-3.6-10-9-12.4-15.5L58 79.9h.6zm15.4-12.7l3 3.7-1 4.6-4.4 2.1-4.3-2-1-4.7 3-3.7h4.7zM45.2 55.8L57 66.2v.1a2.6 2.6 0 0 1-1 4.5l-15 4.4a30 30 0 0 1 4.3-19.4zm52.6 0a31.1 31.1 0 0 1 4.4 19.4l-15-4.4a2.6 2.6 0 0 1-1-4.6l11.6-10.4zm-30-14.5L66.9 57a2.6 2.6 0 0 1-4.2 2l-12.8-9a30.7 30.7 0 0 1 17.9-8.7zm7.5 0c6.7.9 13 4 17.8 8.6l-12.7 9a2.6 2.6 0 0 1-4.2-2l-1-15.6z"/></svg>