
<svg version="1.1" height="40px" width="40px" xmlns="http://www.w3.org/2000/svg"  x="0px" y="0px" viewBox="0 0 256 256" enable-background="new 0 0 256 256" xml:space="preserve">

<g> <path fill="#000000" d="M88.7,0.2c-21.7,0-39.3,17.6-39.3,39.3v68.8H19.8c-5.4,0-9.8,4.4-9.8,9.8v59c0,5.4,4.4,9.8,9.8,9.8h29.5 v29.5c0,21.7,17.6,39.3,39.3,39.3h118c21.7,0,39.3-17.6,39.3-39.3V78.8c0-10.4-9.7-20.5-26.8-37.3l-7.3-7.3l-7.3-7.3 C187.8,9.9,177.8,0.2,167.3,0.2H88.7L88.7,0.2z M88.7,19.8h71.7c7.1,1.8,7,10.5,7,19.2v30c0,5.4,4.4,9.8,9.8,9.8h29.5 c9.8,0,19.7,0,19.7,9.8v127.8c0,10.8-8.9,19.7-19.7,19.7h-118c-10.8,0-19.7-8.9-19.7-19.7V187h98.3c5.4,0,9.8-4.4,9.8-9.8v-59 c0-5.4-4.4-9.8-9.8-9.8H69V39.5C69,28.7,77.8,19.8,88.7,19.8z M65,126.4c4.3,0,8.1,0.8,11.5,2.4l-1.9,4.6c-3.4-1.4-6.6-2.2-9.6-2.2 c-2.6,0-4.5,0.6-5.8,1.7c-1.3,1.1-1.9,2.6-1.9,4.6c0,2.2,0.5,3.9,1.4,5c1.1,1,3.8,2.4,7.9,4.3c4.3,1.8,7.1,3.6,8.4,5.5 c1.4,1.8,2.2,4,2.2,6.7c0,3.7-1.3,6.6-3.8,8.9s-6.2,3.4-11,3.4c-4.6,0-8.3-0.6-11-1.9V164c3.8,1.6,7.5,2.4,11,2.4 c3.2,0,5.5-0.6,7-1.7c1.6-1.1,2.4-2.9,2.4-5.3c0-1.9-0.6-3.5-1.7-4.8c-0.8-0.8-3.8-2.3-8.9-4.6c-3.4-1.6-5.8-3.4-7.2-5.3 c-1.4-1.9-2.2-4.4-2.2-7.4c0-3.4,1.1-6,3.4-7.9C57.6,127.4,60.9,126.4,65,126.4L65,126.4z M86.1,126.8h5.5v18.5h19.9v-18.5h5.8 v43.9h-5.8v-20.4H91.6v20.4h-5.5L86.1,126.8L86.1,126.8z"/></g>
</svg>